<svg xmlns="http://www.w3.org/2000/svg" width="31.762" height="31.762" viewBox="0 0 31.762 31.762">
  <g id="_001-scheme" data-name="001-scheme" transform="translate(-2 -2)">
    <path id="Path_4599" data-name="Path 4599" d="M29.9,2.155A.529.529,0,0,0,29.527,2h-27A.529.529,0,0,0,2,2.529v30.7a.529.529,0,0,0,.529.529h30.7a.529.529,0,0,0,.529-.529v-27a.529.529,0,0,0-.155-.374ZM3.059,32.7V3.059H29.308l2.647,2.647h-1.9V4.647H29V6.235a.529.529,0,0,0,.529.529H32.7V32.7Z" fill="#d2d2d2"/>
    <path id="Path_4600" data-name="Path 4600" d="M32.645,12H28.41a.529.529,0,0,0-.529.529v1.588H17.294V12.529A.529.529,0,0,0,16.764,12H12.529a.529.529,0,0,0-.529.529v4.235a.529.529,0,0,0,.529.529h4.235a.529.529,0,0,0,.529-.529V15.176H27.881v1.588a.529.529,0,0,0,.529.529H30V20.47a1.59,1.59,0,0,1-1.588,1.588H25.234V20.47a.529.529,0,0,0-.529-.529H20.47a.529.529,0,0,0-.529.529v1.588H16.764A2.65,2.65,0,0,0,14.117,24.7v2.647H12.529a.529.529,0,0,0-.529.529v4.235a.529.529,0,0,0,.529.529h4.235a.529.529,0,0,0,.529-.529V30.528H27.881v1.588a.529.529,0,0,0,.529.529h4.235a.529.529,0,0,0,.529-.529V27.881a.529.529,0,0,0-.529-.529H28.41a.529.529,0,0,0-.529.529v1.588H17.294V27.881a.529.529,0,0,0-.529-.529H15.176V24.7a1.59,1.59,0,0,1,1.588-1.588H19.94V24.7a.529.529,0,0,0,.529.529H24.7a.529.529,0,0,0,.529-.529V23.117H28.41a2.65,2.65,0,0,0,2.647-2.647V17.294h1.588a.529.529,0,0,0,.529-.529V12.529A.529.529,0,0,0,32.645,12Zm-16.41,4.235H13.059V13.059h3.176ZM28.94,28.41h3.176v3.176H28.94Zm-12.7,3.176H13.059V28.41h3.176Zm7.94-7.411H21V21h3.176Zm7.94-7.94H28.94V13.059h3.176Z" transform="translate(-4.706 -4.706)" fill="#d2d2d2"/>
  </g>
</svg>
