<svg id="_001-price-tag" data-name="001-price-tag" xmlns="http://www.w3.org/2000/svg" xmlns:xlink="http://www.w3.org/1999/xlink" width="31" height="31" viewBox="0 0 31 31">
  <defs>
    <linearGradient id="linear-gradient" x1="0.5" x2="0.5" y2="1" gradientUnits="objectBoundingBox">
      <stop offset="0" stop-color="#81b72b"/>
      <stop offset="1" stop-color="#469e30"/>
    </linearGradient>
  </defs>
  <path id="Path_4567" data-name="Path 4567" d="M12.271,31a3.205,3.205,0,0,1-2.285-.947L.946,21.012a3.228,3.228,0,0,1-.062-4.5L15.45,1.411A4.53,4.53,0,0,1,18.729,0h9.042A3.233,3.233,0,0,1,31,3.229v9.042a4.537,4.537,0,0,1-1.412,3.282L14.494,30.113A3.22,3.22,0,0,1,12.271,31ZM18.729,1.292A3.2,3.2,0,0,0,16.384,2.3L1.817,17.4a1.937,1.937,0,0,0,.041,2.7L10.9,29.14a1.982,1.982,0,0,0,2.7.037L28.694,14.62l0,0a3.2,3.2,0,0,0,1.01-2.346V3.229a1.94,1.94,0,0,0-1.938-1.938Z" transform="translate(0 0)" fill="url(#linear-gradient)"/>
  <path id="Path_4568" data-name="Path 4568" d="M18.531,27.331a3.351,3.351,0,0,1-.779-.093l-6.188-1.511a.646.646,0,0,1,.306-1.254l6.187,1.511a1.947,1.947,0,0,0,1.476-.222,1.967,1.967,0,0,0,.86-1.144l3.035-11.566a.645.645,0,0,1,1.248.328L21.64,24.953a3.215,3.215,0,0,1-3.109,2.378Z" transform="translate(3.229 3.666)" fill="url(#linear-gradient)"/>
  <path id="Path_4569" data-name="Path 4569" d="M19.583,8.167a2.583,2.583,0,1,1,2.583-2.583A2.586,2.586,0,0,1,19.583,8.167Zm0-3.875a1.292,1.292,0,1,0,1.292,1.292A1.293,1.293,0,0,0,19.583,4.292Z" transform="translate(4.958 0.875)" fill="url(#linear-gradient)"/>
</svg>
