<svg xmlns="http://www.w3.org/2000/svg" width="29.523" height="32.207" viewBox="0 0 29.523 32.207">
  <g id="_001-copy" data-name="001-copy" transform="translate(-1)">
    <path id="Path_4601" data-name="Path 4601" d="M25.459,30.839H9.355A3.359,3.359,0,0,1,6,27.484V7.355A3.359,3.359,0,0,1,9.355,4h16.1a3.359,3.359,0,0,1,3.355,3.355v20.13A3.359,3.359,0,0,1,25.459,30.839Zm-16.1-25.5A2.015,2.015,0,0,0,7.342,7.355v20.13A2.015,2.015,0,0,0,9.355,29.5h16.1a2.015,2.015,0,0,0,2.013-2.013V7.355a2.015,2.015,0,0,0-2.013-2.013Z" transform="translate(1.71 1.368)" fill="#d2d2d2"/>
    <path id="Path_4602" data-name="Path 4602" d="M5.7,28.181H4.355A3.359,3.359,0,0,1,1,24.826V3.355A3.359,3.359,0,0,1,4.355,0h16.1a3.359,3.359,0,0,1,3.355,3.355.671.671,0,1,1-1.342,0,2.015,2.015,0,0,0-2.013-2.013H4.355A2.015,2.015,0,0,0,2.342,3.355V24.826a2.015,2.015,0,0,0,2.013,2.013H5.7a.671.671,0,0,1,0,1.342Z" fill="#d2d2d2"/>
    <path id="Path_4603" data-name="Path 4603" d="M21.407,17.342H10.671a.671.671,0,1,1,0-1.342H21.407a.671.671,0,0,1,0,1.342Z" transform="translate(3.078 5.472)" fill="#d2d2d2"/>
    <path id="Path_4604" data-name="Path 4604" d="M21.407,21.342H10.671a.671.671,0,1,1,0-1.342H21.407a.671.671,0,0,1,0,1.342Z" transform="translate(3.078 6.839)" fill="#d2d2d2"/>
    <path id="Path_4605" data-name="Path 4605" d="M21.407,13.342H10.671a.671.671,0,1,1,0-1.342H21.407a.671.671,0,0,1,0,1.342Z" transform="translate(3.078 4.104)" fill="#d2d2d2"/>
    <path id="Path_4606" data-name="Path 4606" d="M21.407,9.342H10.671a.671.671,0,1,1,0-1.342H21.407a.671.671,0,0,1,0,1.342Z" transform="translate(3.078 2.736)" fill="#d2d2d2"/>
  </g>
</svg>
