<svg xmlns="http://www.w3.org/2000/svg" width="42.441" height="42.441" viewBox="0 0 42.441 42.441">
  <path id="_001-user" data-name="001-user" d="M36.226,6.215A21.221,21.221,0,0,0,6.215,36.226,21.221,21.221,0,0,0,36.226,6.215ZM10.639,36.671a10.745,10.745,0,0,1,21.164,0,18.693,18.693,0,0,1-21.164,0Zm3.835-18.114A6.747,6.747,0,1,1,21.221,25.3,6.755,6.755,0,0,1,14.473,18.557ZM33.957,34.946a13.253,13.253,0,0,0-7.7-8.65,9.234,9.234,0,1,0-10.063,0,13.251,13.251,0,0,0-7.7,8.649,18.734,18.734,0,1,1,25.472,0Zm0,0" fill="#82B82B"/>
</svg>
