<svg id="_002-share" data-name="002-share" xmlns="http://www.w3.org/2000/svg" xmlns:xlink="http://www.w3.org/1999/xlink" width="70.754" height="70.754" viewBox="0 0 70.754 70.754">
  <defs>
    <linearGradient id="linear-gradient" x1="0.5" x2="0.5" y2="1" gradientUnits="objectBoundingBox">
      <stop offset="0" stop-color="#80b72b"/>
      <stop offset="1" stop-color="#469e33"/>
    </linearGradient>
  </defs>
  <path id="Path_5734" data-name="Path 5734" d="M141.382,148.764A1.382,1.382,0,1,0,140,147.382,1.382,1.382,0,0,0,141.382,148.764Zm0,0" transform="translate(-120.653 -125.824)" fill="url(#linear-gradient)"/>
  <path id="Path_5735" data-name="Path 5735" d="M61.162,154.108a1.382,1.382,0,0,0-1.087,2.541,12.437,12.437,0,1,1-9.747,0,1.382,1.382,0,0,0-1.087-2.541,15.2,15.2,0,1,0,11.921,0Zm0,0" transform="translate(-34.472 -132.715)" fill="url(#linear-gradient)"/>
  <path id="Path_5736" data-name="Path 5736" d="M124.6,196.344a1.382,1.382,0,1,1,0,2.764,2.5,2.5,0,0,1-1.794-1.045,1.382,1.382,0,0,0-2.116,1.778,5.724,5.724,0,0,0,2.528,1.8v1.613a1.382,1.382,0,0,0,2.764,0v-1.619a4.145,4.145,0,0,0-1.382-8.054,1.382,1.382,0,1,1,0-2.764,2.22,2.22,0,0,1,1.495.722,1.382,1.382,0,1,0,1.922-1.986,5.339,5.339,0,0,0-2.035-1.272v-1.61a1.382,1.382,0,1,0-2.764,0v1.62a4.145,4.145,0,0,0,1.382,8.053Zm0,0" transform="translate(-103.728 -159.684)" fill="url(#linear-gradient)"/>
  <path id="Path_5737" data-name="Path 5737" d="M58.317,24.874a12.435,12.435,0,1,0-11.258-7.15l-9.437,5.653a20.729,20.729,0,1,0,0,24l9.438,5.653A12.441,12.441,0,1,0,48.5,50.674l-9.433-5.65a20.7,20.7,0,0,0,0-19.295L48.5,20.08A12.352,12.352,0,0,0,58.317,24.874Zm0-22.111a9.673,9.673,0,1,1-9.673,9.673A9.684,9.684,0,0,1,58.317,2.764ZM20.729,53.342a17.978,17.978,0,1,1,15.3-8.554h0A17.875,17.875,0,0,1,20.729,53.342Zm37.588-4.7a9.673,9.673,0,1,1-9.673,9.673A9.684,9.684,0,0,1,58.317,48.643Zm0,0" transform="translate(0)" fill="url(#linear-gradient)"/>
</svg>
