<svg xmlns="http://www.w3.org/2000/svg" width="28.874" height="34.836" viewBox="0 0 28.874 34.836">
  <g id="_002-list" data-name="002-list" transform="translate(-36.55)">
    <g id="Group_8878" data-name="Group 8878" transform="translate(36.55 12.765)">
      <g id="Group_8877" data-name="Group 8877" transform="translate(0)">
        <path id="Path_4590" data-name="Path 4590" d="M41.2,156.5a4.649,4.649,0,1,0,4.649,4.649A4.647,4.647,0,0,0,41.2,156.5Zm0,7.667a3.018,3.018,0,1,1,3.018-3.018A3.016,3.016,0,0,1,41.2,164.167Z" transform="translate(-36.55 -156.5)" fill="#d5d5d5"/>
      </g>
    </g>
    <g id="Group_8880" data-name="Group 8880" transform="translate(47.194 14.07)">
      <g id="Group_8879" data-name="Group 8879" transform="translate(0)">
        <path id="Path_4591" data-name="Path 4591" d="M184.464,172.5h-16.6a.816.816,0,0,0,0,1.631h16.6a.816.816,0,1,0,0-1.631Z" transform="translate(-167.05 -172.5)" fill="#d5d5d5"/>
      </g>
    </g>
    <g id="Group_8882" data-name="Group 8882" transform="translate(47.194 19.127)">
      <g id="Group_8881" data-name="Group 8881" transform="translate(0)">
        <path id="Path_4592" data-name="Path 4592" d="M176.805,234.5h-8.939a.816.816,0,1,0,0,1.631h8.939a.816.816,0,1,0,0-1.631Z" transform="translate(-167.05 -234.5)" fill="#d5d5d5"/>
      </g>
    </g>
    <g id="Group_8884" data-name="Group 8884" transform="translate(36.55)">
      <g id="Group_8883" data-name="Group 8883" transform="translate(0)">
        <path id="Path_4593" data-name="Path 4593" d="M41.2,0a4.649,4.649,0,1,0,4.649,4.649A4.647,4.647,0,0,0,41.2,0Zm0,7.659a3.018,3.018,0,1,1,3.018-3.018A3.016,3.016,0,0,1,41.2,7.659Z" transform="translate(-36.55)" fill="#d5d5d5"/>
      </g>
    </g>
    <g id="Group_8886" data-name="Group 8886" transform="translate(47.194 1.264)">
      <g id="Group_8885" data-name="Group 8885" transform="translate(0)">
        <path id="Path_4594" data-name="Path 4594" d="M184.464,15.5h-16.6a.816.816,0,0,0,0,1.631h16.6a.816.816,0,1,0,0-1.631Z" transform="translate(-167.05 -15.5)" fill="#d5d5d5"/>
      </g>
    </g>
    <g id="Group_8888" data-name="Group 8888" transform="translate(47.194 6.403)">
      <g id="Group_8887" data-name="Group 8887" transform="translate(0)">
        <path id="Path_4595" data-name="Path 4595" d="M176.805,78.5h-8.939a.816.816,0,0,0,0,1.631h8.939a.816.816,0,0,0,0-1.631Z" transform="translate(-167.05 -78.5)" fill="#d5d5d5"/>
      </g>
    </g>
    <g id="Group_8890" data-name="Group 8890" transform="translate(36.55 25.538)">
      <g id="Group_8889" data-name="Group 8889" transform="translate(0)">
        <path id="Path_4596" data-name="Path 4596" d="M41.2,313.1a4.649,4.649,0,1,0,4.649,4.649A4.647,4.647,0,0,0,41.2,313.1Zm0,7.659a3.018,3.018,0,1,1,3.018-3.018A3.016,3.016,0,0,1,41.2,320.759Z" transform="translate(-36.55 -313.1)" fill="#d5d5d5"/>
      </g>
    </g>
    <g id="Group_8892" data-name="Group 8892" transform="translate(47.194 26.794)">
      <g id="Group_8891" data-name="Group 8891" transform="translate(0)">
        <path id="Path_4597" data-name="Path 4597" d="M184.464,328.5h-16.6a.816.816,0,1,0,0,1.631h16.6a.816.816,0,1,0,0-1.631Z" transform="translate(-167.05 -328.5)" fill="#d5d5d5"/>
      </g>
    </g>
    <g id="Group_8894" data-name="Group 8894" transform="translate(47.194 31.932)">
      <g id="Group_8893" data-name="Group 8893" transform="translate(0)">
        <path id="Path_4598" data-name="Path 4598" d="M176.805,391.5h-8.939a.816.816,0,0,0,0,1.631h8.939a.816.816,0,1,0,0-1.631Z" transform="translate(-167.05 -391.5)" fill="#d5d5d5"/>
      </g>
    </g>
  </g>
</svg>
