<svg xmlns="http://www.w3.org/2000/svg" width="44.119" height="28.013" viewBox="0 0 44.119 28.013">
  <g id="_004-group" data-name="004-group" transform="translate(0 -92.25)">
    <g id="Group_8874" data-name="Group 8874" transform="translate(0 92.25)">
      <path id="Path_4586" data-name="Path 4586" d="M38.156,104.576a5.037,5.037,0,1,0-5.779,0,8.727,8.727,0,0,0-2.977,1.746,11.293,11.293,0,0,0-4.085-2.226,6.381,6.381,0,1,0-6.6,0,11.387,11.387,0,0,0-4.042,2.2,8.8,8.8,0,0,0-2.942-1.711,5.037,5.037,0,1,0-5.779,0A8.841,8.841,0,0,0,0,112.939v.576a.038.038,0,0,0,.035.035H10.711a11.741,11.741,0,0,0-.1,1.475v.594a4.642,4.642,0,0,0,4.644,4.644H28.79a4.642,4.642,0,0,0,4.644-4.644v-.594a11.741,11.741,0,0,0-.1-1.475H44.084a.038.038,0,0,0,.035-.035v-.576A8.875,8.875,0,0,0,38.156,104.576Zm-6.53-4.129a3.64,3.64,0,1,1,3.71,3.64H35.2A3.635,3.635,0,0,1,31.627,100.447ZM17.014,98.631a4.985,4.985,0,1,1,5.273,4.976H21.71A4.992,4.992,0,0,1,17.014,98.631ZM5.177,100.447a3.64,3.64,0,1,1,3.71,3.64h-.14A3.641,3.641,0,0,1,5.177,100.447Zm5.779,11.7H1.414a7.459,7.459,0,0,1,7.35-6.661h.1a7.381,7.381,0,0,1,4.758,1.772A11.462,11.462,0,0,0,10.955,112.144Zm21.064,3.474a3.252,3.252,0,0,1-3.247,3.247H15.242a3.252,3.252,0,0,1-3.247-3.247v-.594a10.028,10.028,0,0,1,9.716-10.013c.1.009.2.009.3.009s.2,0,.3-.009a10.028,10.028,0,0,1,9.716,10.013Zm1.039-3.474a11.431,11.431,0,0,0-2.645-4.854,7.417,7.417,0,0,1,4.8-1.807h.1a7.459,7.459,0,0,1,7.35,6.661Z" transform="translate(0 -92.25)" fill="#d5d5d5"/>
    </g>
  </g>
</svg>
