<svg id="_006-profit-1" data-name="006-profit-1" xmlns="http://www.w3.org/2000/svg" width="69.967" height="55" viewBox="0 0 69.967 55">
  <path id="Path_4580" data-name="Path 4580" d="M69.59,76.068,57.3,58.584a2.059,2.059,0,0,0-3.367,0L49.26,65.238a27.5,27.5,0,1,0-2.986,36.9l-.127,2.059a2.058,2.058,0,0,0,2.054,2.185H63.039a2.058,2.058,0,0,0,2.054-2.185L63.555,79.309h4.352A2.059,2.059,0,0,0,69.59,76.068ZM27.5,105.431A23.384,23.384,0,1,1,46.764,68.79L41.65,76.068a2.059,2.059,0,0,0,1.684,3.241h4.352l-.994,16.1A23.342,23.342,0,0,1,27.5,105.431ZM61.366,75.193a2.058,2.058,0,0,0-2.054,2.185l1.538,24.892H50.39l1.538-24.892a2.058,2.058,0,0,0-2.054-2.185H47.295L55.62,63.346l8.325,11.847Z" transform="translate(0 -54.547)" fill="#5aa62e"/>
  <path id="Path_4581" data-name="Path 4581" d="M144.431,152.86h-5.195a2.607,2.607,0,0,1,0-5.214h5.011a3.763,3.763,0,0,1,3.087,1.744l.026.041a2.058,2.058,0,0,0,3.471-2.212l-.028-.044a7.835,7.835,0,0,0-6.912-3.644v-2.468a2.058,2.058,0,1,0-4.115,0v2.468a6.807,6.807,0,0,0-5.276,1.952,6.723,6.723,0,0,0,4.736,11.494h5.195a2.607,2.607,0,1,1-.034,5.214h-5.43a3.724,3.724,0,0,1-2.815-1.375,2.058,2.058,0,1,0-3.162,2.634c1.926,2.312,4.167,2.856,6.786,2.856v2.468a2.058,2.058,0,1,0,4.115,0V166.3c4.793,0,7.262-3.376,7.262-6.723A6.73,6.73,0,0,0,144.431,152.86Z" transform="translate(-114.334 -127.417)" fill="#5aa62e"/>
</svg>
