<svg xmlns="http://www.w3.org/2000/svg" xmlns:xlink="http://www.w3.org/1999/xlink" width="59.745" height="53.77" viewBox="0 0 59.745 53.77">
  <defs>
    <linearGradient id="linear-gradient" x1="0.5" x2="0.5" y2="1" gradientUnits="objectBoundingBox">
      <stop offset="0" stop-color="#7cb42b"/>
      <stop offset="1" stop-color="#479e30"/>
    </linearGradient>
  </defs>
  <g id="_007-graph" data-name="007-graph" transform="translate(0)">
    <g id="Group_8558" data-name="Group 8558" transform="translate(0)">
      <path id="Path_4579" data-name="Path 4579" d="M53.77,25.6a5.963,5.963,0,0,0-4.294,10.111L38.561,57.538a5.779,5.779,0,0,0-.723-.074,5.949,5.949,0,0,0-2.248.446l-8.474-9.529a5.9,5.9,0,0,0,.765-2.866A5.975,5.975,0,1,0,17.4,49.391L7.042,67.529a5.992,5.992,0,0,0-1.067-.108,6.047,6.047,0,1,0,4.509,2.1L20.839,51.382a5.681,5.681,0,0,0,3.308-.339l8.474,9.529a5.9,5.9,0,0,0-.757,2.866A5.974,5.974,0,1,0,42.132,59.3L53.048,37.475a5.779,5.779,0,0,0,.723.074,5.974,5.974,0,1,0,0-11.949ZM5.974,75.387A1.992,1.992,0,1,1,7.966,73.4,1.992,1.992,0,0,1,5.974,75.387ZM21.906,47.506A1.992,1.992,0,1,1,23.9,45.515,1.992,1.992,0,0,1,21.906,47.506ZM37.838,65.43a1.992,1.992,0,1,1,1.992-1.992A1.992,1.992,0,0,1,37.838,65.43ZM53.77,33.566a1.992,1.992,0,1,1,1.992-1.992A1.992,1.992,0,0,1,53.77,33.566Z" transform="translate(0 -25.6)" fill="url(#linear-gradient)"/>
    </g>
  </g>
</svg>
