<svg xmlns="http://www.w3.org/2000/svg" xmlns:xlink="http://www.w3.org/1999/xlink" width="163.271" height="63.733" viewBox="0 0 163.271 63.733">
  <defs>
    <linearGradient id="linear-gradient" x1="-0.145" y1="0.426" x2="5.731" y2="1.391" gradientUnits="objectBoundingBox">
      <stop offset="0" stop-color="#45a735"/>
      <stop offset="1" stop-color="#8abb2a"/>
    </linearGradient>
    <linearGradient id="linear-gradient-2" x1="-1.299" y1="0.107" x2="5.147" y2="1.408" xlink:href="#linear-gradient"/>
    <linearGradient id="linear-gradient-3" x1="-3.39" y1="-0.065" x2="5.497" y2="1.273" xlink:href="#linear-gradient"/>
    <linearGradient id="linear-gradient-4" x1="-4.467" y1="-0.227" x2="4.42" y2="1.111" xlink:href="#linear-gradient"/>
    <linearGradient id="linear-gradient-5" x1="-4.145" y1="-0.409" x2="2.578" y2="0.907" xlink:href="#linear-gradient"/>
    <linearGradient id="linear-gradient-6" x1="-7.136" y1="-0.381" x2="2.188" y2="0.679" xlink:href="#linear-gradient"/>
    <linearGradient id="linear-gradient-7" x1="4" y1="2.254" x2="-1.816" y2="-0.533" gradientUnits="objectBoundingBox">
      <stop offset="0" stop-color="#0063b0"/>
      <stop offset="1" stop-color="#002b7f"/>
    </linearGradient>
    <linearGradient id="linear-gradient-8" x1="3.463" y1="2.38" x2="-2.603" y2="-1.468" xlink:href="#linear-gradient-7"/>
    <linearGradient id="linear-gradient-9" x1="3.092" y1="1.88" x2="-3.98" y2="-1.895" xlink:href="#linear-gradient-7"/>
    <linearGradient id="linear-gradient-10" x1="0.222" y1="4.011" x2="0.222" y2="4.746" xlink:href="#linear-gradient-7"/>
    <linearGradient id="linear-gradient-11" x1="1.259" y1="2.939" x2="0.011" y2="2.352" xlink:href="#linear-gradient-7"/>
    <linearGradient id="linear-gradient-12" x1="0.5" y1="-0.419" x2="0.5" y2="0.691" xlink:href="#linear-gradient"/>
    <linearGradient id="linear-gradient-14" x1="0.126" y1="0.596" x2="1.122" y2="0.969" xlink:href="#linear-gradient"/>
    <linearGradient id="linear-gradient-15" x1="0.5" y1="0" x2="0.5" y2="1" xlink:href="#linear-gradient"/>
  </defs>
  <g id="Group_8516" data-name="Group 8516" transform="translate(0 0)">
    <g id="Group_6044" data-name="Group 6044" transform="translate(0 34.795)">
      <path id="Path_4542" data-name="Path 4542" d="M159.836,532.473l-8,0,0,8.325H146.5l.006-28.287c4.445,0,8.89-.039,13.336-.038C173.66,512.474,173.7,532.476,159.836,532.473Zm-8-4.891,8,0c6.83,0,6.791-10.021,0-10.022l-8,0Z" transform="translate(-146.499 -512.471)" fill="url(#linear-gradient)"/>
      <path id="Path_4543" data-name="Path 4543" d="M271.693,547.262h4.728l0,19.922H271.77l-.242-2.91c-1.132,2.344-4.244,3.475-6.466,3.515-5.9.039-10.264-3.6-10.262-10.589,0-6.87,4.569-10.466,10.388-10.424a7.314,7.314,0,0,1,6.343,3.234ZM259.729,557.2a5.706,5.706,0,0,0,5.9,6.062c7.759,0,7.761-12.081,0-12.083A5.674,5.674,0,0,0,259.729,557.2Z" transform="translate(-229.782 -538.85)" fill="url(#linear-gradient-2)"/>
      <path id="Path_4544" data-name="Path 4544" d="M370.975,547.15l.363,2.3c1.536-2.464,3.6-2.828,5.618-2.827a7.56,7.56,0,0,1,5.132,1.9l-2.223,4.283a4.927,4.927,0,0,0-3.557-1.294c-2.586,0-4.971,1.373-4.971,5.05l0,10.507H366.4l0-19.922Z" transform="translate(-315.607 -538.736)" fill="url(#linear-gradient-3)"/>
      <path id="Path_4545" data-name="Path 4545" d="M446.9,547.165l.363,2.3c1.536-2.464,3.6-2.828,5.618-2.828a7.559,7.559,0,0,1,5.132,1.9l-2.223,4.283a4.925,4.925,0,0,0-3.556-1.294c-2.586,0-4.971,1.373-4.971,5.05l0,10.507h-4.93l0-19.922Z" transform="translate(-373.995 -538.747)" fill="url(#linear-gradient-4)"/>
      <path id="Path_4546" data-name="Path 4546" d="M534.973,557.568c0,5.738-3.922,10.385-10.387,10.383s-10.344-4.649-10.343-10.387c0-5.7,3.963-10.385,10.307-10.383A10.071,10.071,0,0,1,534.973,557.568Zm-15.8,0c0,3.031,1.818,5.86,5.414,5.861S530,560.6,530,557.567c0-2.99-2.1-5.9-5.414-5.9C521.034,551.665,519.174,554.575,519.173,557.565Z" transform="translate(-429.296 -539.163)" fill="url(#linear-gradient-5)"/>
      <path id="Path_4547" data-name="Path 4547" d="M618.244,524.632v5.657h5.5v4.242H618.2l0,8.607c0,1.9,1.049,2.829,2.586,2.829a5.642,5.642,0,0,0,2.384-.605l1.373,4.2a11.01,11.01,0,0,1-4.082.848c-4.324.161-7.152-2.305-7.151-7.276l0-8.607h-3.718v-4.243h3.718v-5.132Z" transform="translate(-502.621 -521.823)" fill="url(#linear-gradient-6)"/>
    </g>
    <g id="Group_6045" data-name="Group 6045" transform="translate(125.646 47.099)">
      <path id="Path_4548" data-name="Path 4548" d="M690.433,582.585l0-16.314H693.1l.186,1.587a4.571,4.571,0,0,1,3.735-1.843,5.755,5.755,0,0,1,5.9,6.022c0,3.362-2.125,6.022-5.813,6.021-1.214,0-3.01-.374-3.827-1.635v6.162Zm9.641-10.547a3.268,3.268,0,0,0-6.535,0,3.268,3.268,0,1,0,6.535,0Z" transform="translate(-690.433 -565.951)" fill="url(#linear-gradient-7)"/>
      <path id="Path_4549" data-name="Path 4549" d="M763.241,572.126a5.987,5.987,0,1,1-6.02-6A5.817,5.817,0,0,1,763.241,572.126Zm-9.126,0a3.137,3.137,0,1,0,6.255,0,3.25,3.25,0,0,0-3.127-3.408A3.162,3.162,0,0,0,754.116,572.124Z" transform="translate(-737.215 -566.036)" fill="url(#linear-gradient-8)"/>
      <path id="Path_4550" data-name="Path 4550" d="M817,569.121a3.88,3.88,0,0,0-2.847-1.028c-1.354,0-2.1.42-2.1,1.143,0,.747.677,1.167,2.147,1.261,2.171.141,4.925.632,4.924,3.689,0,2.03-1.658,3.78-4.949,3.78a6.732,6.732,0,0,1-5.321-2.055l1.4-2.031a6.317,6.317,0,0,0,3.968,1.612c1.073.024,2.077-.537,2.078-1.376,0-.794-.653-1.121-2.288-1.215-2.171-.164-4.761-.958-4.76-3.572,0-2.661,2.754-3.593,4.855-3.593a6.179,6.179,0,0,1,4.481,1.517Z" transform="translate(-781.502 -565.736)" fill="url(#linear-gradient-9)"/>
    </g>
    <g id="Group_6047" data-name="Group 6047" transform="translate(94.307 0)">
      <g id="Group_6046" data-name="Group 6046" transform="translate(0)">
        <path id="Path_4551" data-name="Path 4551" d="M597.156,469.381s1.2,7.457,2.822,7.86c0,0-4.858,5.52-10.489,1.909Z" transform="translate(-581.468 -444.54)" fill="url(#linear-gradient-10)"/>
        <path id="Path_4552" data-name="Path 4552" d="M570.423,456.241l-8.365,9.179-.459.5-1.587,1.741-.689.757s-9.124-5.576-1.556-16.127l.1.031,2.293.714Z" transform="translate(-554.764 -431.399)" fill="url(#linear-gradient-11)"/>
        <path id="Path_4553" data-name="Path 4553" d="M608.941,431.33a2.954,2.954,0,0,0-.4.6,2.12,2.12,0,0,1,1.29,3.967,2.959,2.959,0,1,0-.893-4.565Z" transform="translate(-596.121 -414.488)" fill="#252b44"/>
        <path id="Path_4554" data-name="Path 4554" d="M653.354,392.583a11.4,11.4,0,0,1-4.5.942,15.162,15.162,0,0,0-4.865-1.259c-.293-.025-.589-.046-.887-.058.293-.042.589-.085.882-.134,3.915-.647,7.764-1.94,7.519-4.5C651.5,387.58,656.32,390.525,653.354,392.583Z" transform="translate(-622.695 -381.634)" fill="url(#linear-gradient-12)"/>
        <path id="Path_4555" data-name="Path 4555" d="M631.66,396c-.293-.025-.589-.046-.887-.058a17.73,17.73,0,0,0-3.7.254,6.734,6.734,0,0,0,1.06-3.761,17.076,17.076,0,0,1,.993,3.308,6.1,6.1,0,0,0,.293-2.1,20.943,20.943,0,0,1,.712,2.065,16.814,16.814,0,0,0,1.375-1.626,13.633,13.633,0,0,1,.152,1.73C631.658,395.875,631.66,395.94,631.66,396Z" transform="translate(-610.368 -385.372)" fill="url(#linear-gradient-12)"/>
        <path id="Path_4556" data-name="Path 4556" d="M763.939,395.578a21.267,21.267,0,0,1-2.74,6.233l-2.023-1.5-6.52,5.042c.624-.589,5.687-5.505,7.231-11.746.758-3.12.5-7.443-2.2-12.889l1.625-2.2C764.27,385.956,764.894,391.689,763.939,395.578Z" transform="translate(-706.944 -374.665)" fill="url(#linear-gradient-14)"/>
        <path id="Path_4557" data-name="Path 4557" d="M628.31,402.377c-1.7,3.687-6.533,5.232-11.026,3.476a10.419,10.419,0,0,1-3.46-2.213c-4.389,2.019-10.2,2.16-15.853-.051a22.853,22.853,0,0,1-7.953-5.2c-.455-.492-.912-1-1.317-1.511,5.69-3.019,8.288-9.533,5.8-14.9a10.11,10.11,0,0,0-3.46-4.144,12.485,12.485,0,0,0-12.324-.843,13.058,13.058,0,0,0-5.881,5.3l-2.282-.721a17.733,17.733,0,0,1,5.916-6.144,24.358,24.358,0,0,1,2.335-1.282c.386-.175.771-.333,1.141-.473.4-.159.806-.3,1.21-.423a16.482,16.482,0,0,1,2.144-.527c.1-.018.206-.039.31-.055a17.722,17.722,0,0,1,3.7-.254c.3.012.594.032.887.058a15.16,15.16,0,0,1,4.865,1.259,12.719,12.719,0,0,1,3.28,2.118c0,.018.016.018.016.035a9.016,9.016,0,0,1,2.844,5.881,10.671,10.671,0,0,1-1.3,6.62,8.708,8.708,0,0,0,2.176-4.724,32.448,32.448,0,0,1,7.674-15.606l5.354-6.216a46.633,46.633,0,0,1,2.615,5.373c2.809,6.969,2.721,12.324,1.492,16.1-2.492,7.549-9.2,13.132-10.025,13.8l8.517-5.6,2.352,2.035Z" transform="translate(-566.903 -361.84)" fill="url(#linear-gradient-15)"/>
      </g>
    </g>
  </g>
</svg>
