<svg xmlns="http://www.w3.org/2000/svg" xmlns:xlink="http://www.w3.org/1999/xlink" width="84.588" height="84.588" viewBox="0 0 84.588 84.588">
  <defs>
    <linearGradient id="linear-gradient" x1="0.5" x2="0.5" y2="1" gradientUnits="objectBoundingBox">
      <stop offset="0" stop-color="#7eb52b"/>
      <stop offset="1" stop-color="#469e31"/>
    </linearGradient>
  </defs>
  <g id="Group_9994" data-name="Group 9994" transform="translate(-856.206 -295.729)">
    <g id="total-orders" transform="translate(856.206 295.729)">
      <g id="_06-Coin" data-name="06-Coin" transform="translate(-4.001 -4)">
        <g id="filled" transform="translate(4.001 4)">
          <path id="Path_4565" data-name="Path 4565" d="M88,28.758,77.257,18.017a2.014,2.014,0,0,0-3.438,1.424V22.8H69.791V11.385A7.393,7.393,0,0,0,62.407,4H30.183A7.393,7.393,0,0,0,22.8,11.385V55.021H18.77V51.665a2.014,2.014,0,0,0-3.438-1.424L4.59,60.982a2.014,2.014,0,0,0,0,2.848L15.332,74.572a2.027,2.027,0,0,0,3.438-1.424V69.791H22.8V81.2a7.393,7.393,0,0,0,7.385,7.385H62.407A7.393,7.393,0,0,0,69.791,81.2V37.567h4.028v3.357a2.027,2.027,0,0,0,3.438,1.424L88,31.606A2.014,2.014,0,0,0,88,28.758ZM30.183,8.028H62.407a3.361,3.361,0,0,1,3.357,3.357v3.357H26.826V11.385A3.361,3.361,0,0,1,30.183,8.028ZM62.407,84.56H30.183A3.361,3.361,0,0,1,26.826,81.2V77.847H65.763V81.2A3.361,3.361,0,0,1,62.407,84.56Zm15.441-48.5v-.508a2.014,2.014,0,0,0-2.014-2.014H59.721a2.014,2.014,0,1,0,0,4.028h6.042V73.819H26.826V69.791h6.042a2.014,2.014,0,0,0,0-4.028H16.756a2.014,2.014,0,0,0-2.014,2.014v.508L8.863,62.406l5.879-5.879v.508a2.014,2.014,0,0,0,2.014,2.014H32.868a2.014,2.014,0,1,0,0-4.028H26.826V18.769H65.763V22.8H59.721a2.014,2.014,0,1,0,0,4.028H75.833a2.014,2.014,0,0,0,2.014-2.014V24.3l5.879,5.879Z" transform="translate(-4.001 -4)" fill="url(#linear-gradient)"/>
          <path id="Path_4566" data-name="Path 4566" d="M203.385,157.4H210.1a2.016,2.016,0,0,1,2.014,2.014,2.014,2.014,0,0,0,4.028,0,6.049,6.049,0,0,0-6.042-6.042h-2.014v-3.357a2.014,2.014,0,1,0-4.028,0v3.357h-.671a7.385,7.385,0,1,0,0,14.769h5.371a3.357,3.357,0,0,1,0,6.713h-6.713a2.016,2.016,0,0,1-2.014-2.014,2.014,2.014,0,0,0-4.028,0,6.049,6.049,0,0,0,6.042,6.042h2.014v3.357a2.014,2.014,0,0,0,4.028,0v-3.357h.671a7.385,7.385,0,1,0,0-14.769h-5.371a3.357,3.357,0,1,1,0-6.713Z" transform="translate(-163.776 -123.832)" fill="url(#linear-gradient)"/>
        </g>
      </g>
    </g>
  </g>
</svg>
