<svg xmlns="http://www.w3.org/2000/svg" width="33.984" height="33.983" viewBox="0 0 33.984 33.983">
  <g id="Group_9802" data-name="Group 9802" transform="translate(-405.464 -922.735)">
    <g id="surface1" transform="translate(405.464 922.735)">
      <path id="Path_4572" data-name="Path 4572" d="M257.258,141a7.93,7.93,0,1,0-7.93-7.93A7.93,7.93,0,0,0,257.258,141Zm0-14.726a6.8,6.8,0,1,1-6.8,6.8A6.8,6.8,0,0,1,257.258,126.277Zm0,0" transform="translate(-240.266 -120.614)" fill="#a3a3a3"/>
      <path id="Path_4573" data-name="Path 4573" d="M32.743,582.384a2.656,2.656,0,0,0-2.568-.157l-6.549,3.1a2.549,2.549,0,0,0-2.386-3.445H14.389a8.037,8.037,0,0,0-9.371-1.171l-.068.038H0v1.133H4.531v9.629H0v1.133H19.917a10.772,10.772,0,0,0,5.392-1.448l7.343-4.251a2.668,2.668,0,0,0,.09-4.563Zm-.658,3.582-7.344,4.251a9.637,9.637,0,0,1-4.824,1.3H5.664v-9.861a6.9,6.9,0,0,1,8.1,1.2.568.568,0,0,0,.4.166h7.08a1.416,1.416,0,0,1,0,2.832H14.16a.566.566,0,0,0,0,1.133h8.5a.573.573,0,0,0,.242-.057l7.76-3.677a1.534,1.534,0,0,1,1.426,2.715Zm0,0" transform="translate(0 -558.663)" fill="#a3a3a3"/>
      <path id="Path_4574" data-name="Path 4574" d="M312.8,193.14a4.536,4.536,0,0,1,4.531-4.531v-1.133a5.67,5.67,0,0,0-5.664,5.664Zm0,0" transform="translate(-300.336 -180.681)" fill="#a3a3a3"/>
      <path id="Path_4575" data-name="Path 4575" d="M467.5,348.969a5.67,5.67,0,0,0,5.664-5.664h-1.133a4.536,4.536,0,0,1-4.531,4.531Zm0,0" transform="translate(-450.508 -330.845)" fill="#a3a3a3"/>
      <path id="Path_4576" data-name="Path 4576" d="M140.765,3.89a2.19,2.19,0,0,1,1.8,1.8.566.566,0,0,0,1.117,0,2.191,2.191,0,0,1,1.8-1.8.567.567,0,0,0,0-1.117,2.192,2.192,0,0,1-1.8-1.8.566.566,0,0,0-1.117,0,2.191,2.191,0,0,1-1.8,1.8.567.567,0,0,0,0,1.117Zm2.359-1.368a3.334,3.334,0,0,0,.809.809,3.325,3.325,0,0,0-.809.809,3.319,3.319,0,0,0-.809-.809A3.327,3.327,0,0,0,143.123,2.522Zm0,0" transform="translate(-135.194 -0.5)" fill="#a3a3a3"/>
      <path id="Path_4577" data-name="Path 4577" d="M701.761,393.468a2.19,2.19,0,0,1,1.8,1.8.566.566,0,0,0,1.117,0,2.191,2.191,0,0,1,1.8-1.8.567.567,0,0,0,0-1.117,2.192,2.192,0,0,1-1.8-1.8.566.566,0,0,0-1.117,0,2.191,2.191,0,0,1-1.8,1.8.567.567,0,0,0,0,1.117Zm2.359-1.368a3.333,3.333,0,0,0,.809.809.809.809,0,0,1-1.618,0A3.331,3.331,0,0,0,704.12,392.1Zm0,0" transform="translate(-675.799 -375.918)" fill="#a3a3a3"/>
      <path id="Path_4578" data-name="Path 4578" d="M406.863,250.375a1.7,1.7,0,0,0,0,3.4H408a.566.566,0,1,1,0,1.133H405.73v1.133h1.133v.566H408v-.566a1.7,1.7,0,0,0,0-3.4h-1.133a.566.566,0,1,1,0-1.133h2.266v-1.133H408v-.566h-1.133Zm0,0" transform="translate(-390.438 -240.747)" fill="#a3a3a3"/>
    </g>
  </g>
</svg>
