<svg xmlns="http://www.w3.org/2000/svg" xmlns:xlink="http://www.w3.org/1999/xlink" width="33.984" height="30.672" viewBox="0 0 33.984 30.672">
  <defs>
    <linearGradient id="linear-gradient" x1="1" y1="9.068" x2="1" y2="-12.649" gradientUnits="objectBoundingBox">
      <stop offset="0" stop-color="#429a33"/>
      <stop offset="1" stop-color="#82b72b"/>
    </linearGradient>
  </defs>
  <g id="Group_9932" data-name="Group 9932" transform="translate(-685 -1187)">
    <g id="_001-heart" data-name="001-heart" transform="translate(685 1187)">
      <path id="Path_4582" data-name="Path 4582" d="M40.664,262.6a.664.664,0,1,0,.664.664A.664.664,0,0,0,40.664,262.6Zm0,0" transform="translate(-37.345 -245.201)" fill="url(#linear-gradient)"/>
      <path id="Path_4583" data-name="Path 4583" d="M30.507,227.554l-6.257,2.151a2.649,2.649,0,0,0-2.612-3.126h-4.3a.664.664,0,0,1-.326-.085l-3.507-1.972a4.65,4.65,0,0,0-2.279-.6H6.523A1.994,1.994,0,0,0,4.646,222.6H.664a.664.664,0,0,0-.664.664v11.947a.664.664,0,0,0,.664.664H4.646A2,2,0,0,0,6.5,234.6a6.06,6.06,0,0,1,2.167.643l3.471,2.083a8.461,8.461,0,0,0,7.855.448l12.389-5.455a2.559,2.559,0,0,0-1.879-4.76Zm-25.2,6.33a.665.665,0,0,1-.664.661H1.328v-10.62H4.646a.665.665,0,0,1,.664.664Zm26.572-2.8-.021.009-12.409,5.464a7.134,7.134,0,0,1-6.626-.376L9.355,234.1a7.318,7.318,0,0,0-2.717-.826v-8.021h4.591a3.321,3.321,0,0,1,1.628.427l3.507,1.972a1.994,1.994,0,0,0,.977.256h4.3a1.328,1.328,0,1,1,0,2.655H14.891a.664.664,0,1,0,0,1.327h6.748a2.65,2.65,0,0,0,1.244-.311l8.071-2.774a1.232,1.232,0,1,1,.929,2.282Zm0,0" transform="translate(0 -207.856)" fill="url(#linear-gradient)"/>
      <path id="Path_4584" data-name="Path 4584" d="M168.664,16.6a.664.664,0,0,0,.87,0c5.416-4.693,8.766-7.069,8.766-10.76A5.082,5.082,0,0,0,173.327.5a4.915,4.915,0,0,0-4.308,2.749,4.827,4.827,0,0,0-9.043.921.664.664,0,1,0,1.274.373,3.6,3.6,0,0,1,3.462-2.716c1.894,0,3.222,1.681,3.668,3.247a.664.664,0,0,0,1.279,0c.009-.032.931-3.247,3.669-3.247a3.757,3.757,0,0,1,3.644,4.012c0,2.953-2.886,5.081-7.873,9.381-3.039-2.609-5.452-4.446-6.824-6.243a.664.664,0,1,0-1.055.806C162.765,11.809,165.376,13.749,168.664,16.6Zm0,0" transform="translate(-149.332 -0.5)" fill="url(#linear-gradient)"/>
      <path id="Path_4585" data-name="Path 4585" d="M159.664,88.6a.664.664,0,1,0,.664.664A.664.664,0,0,0,159.664,88.6Zm0,0" transform="translate(-148.446 -82.75)" fill="url(#linear-gradient)"/>
    </g>
  </g>
</svg>
