<svg xmlns="http://www.w3.org/2000/svg" xmlns:xlink="http://www.w3.org/1999/xlink" width="48" height="49" viewBox="0 0 48 49">
  <defs>
    <filter id="Path_4635" x="0" y="0" width="48" height="49" filterUnits="userSpaceOnUse">
      <feOffset input="SourceAlpha"/>
      <feGaussianBlur stdDeviation="2" result="blur"/>
      <feFlood flood-opacity="0.161"/>
      <feComposite operator="in" in2="blur"/>
      <feComposite in="SourceGraphic"/>
    </filter>
  </defs>
  <g id="Group_8944" data-name="Group 8944" transform="translate(1855.526 361.636) rotate(180)">
    <g transform="matrix(-1, 0, 0, -1, 1855.53, 361.64)" filter="url(#Path_4635)">
      <path id="Path_4635-2" data-name="Path 4635" d="M7,0H29a7,7,0,0,1,7,7V30a7,7,0,0,1-7,7H7a7,7,0,0,1-7-7V7A7,7,0,0,1,7,0Z" transform="translate(42 43) rotate(180)" fill="#fff"/>
    </g>
    <g id="chevron_right" transform="translate(1827.742 330.109)">
      <path id="Icon_color" data-name="Icon color" d="M7.786,6.126a.871.871,0,0,1,.255.615v.441a.894.894,0,0,1-.255.615L1.82,13.753a.58.58,0,0,1-.824,0l-.824-.824a.569.569,0,0,1,0-.813L5.337,6.962.172,1.808a.58.58,0,0,1,0-.824L1,.172a.58.58,0,0,1,.824,0Z" fill="#707070"/>
    </g>
  </g>
</svg>
