<svg id="Group_9898" data-name="Group 9898" xmlns="http://www.w3.org/2000/svg" width="12.935" height="18.55" viewBox="0 0 12.935 18.55">
  <path id="Path_3818" data-name="Path 3818" d="M434.977,463.693v.013c-.084,0-.167,0-.25,0s-.167,0-.25,0v-.013c-2.7-.128-5.191-1.311-5.968-4.021h0a7.046,7.046,0,0,1-.243-2.19c.156-4.493,4.981-8.384,4.981-8.384l1.23-.139V448.9l.25.028.25-.028v.057l1.012.113s.279.216.707.606a16.118,16.118,0,0,1,3.791,4.966l0,.006a8.873,8.873,0,0,1,.33.851,7.071,7.071,0,0,1,.371,1.98C441.338,461.76,438.318,463.534,434.977,463.693Z" transform="translate(-428.26 -445.155)" fill="#8abb2a"/>
  <g id="Group_5249" data-name="Group 5249" transform="translate(0.248)">
    <path id="Path_3819" data-name="Path 3819" d="M475.187,416.973a2.628,2.628,0,0,1-.66-1.562,13.594,13.594,0,0,0-.4-1.833,1.383,1.383,0,0,1,1.237,0c.619.337,1.051-.713,1.905-.214s.815,1.024,1.4.656a.655.655,0,0,1,.93.131,4.682,4.682,0,0,0-.93,1.837c-.052.739-.346,1.181-.584,1.234S475.187,416.973,475.187,416.973Z" transform="translate(-470.199 -413.227)" fill="#8abb2a"/>
    <path id="Path_3820" data-name="Path 3820" d="M484.569,422.845a6.638,6.638,0,0,1-.436,1.855c-.273.385-2.325.326-2.325.326l.17.426,3.324.21a4.622,4.622,0,0,1,.152-1.347c.2-.8.547-1.225.38-1.365s-.676.665-.763.866,0-.709-.148-.884A.314.314,0,0,0,484.569,422.845Z" transform="translate(-477.179 -421.815)" fill="#3c9b36"/>
    <path id="Path_3821" data-name="Path 3821" d="M437.456,467.845v.013c-.084,0-.167,0-.25,0s-.167,0-.25,0v-.013c-2.7-.128-5.191-1.311-5.968-4.021a6.54,6.54,0,0,0,4.282,1.863c3.886.453,4.605-.322,5.465-1.883,2.618-4.757-1.993-10.147-2.033-10.263l.474.289a16.12,16.12,0,0,1,3.791,4.966l0,.006.33.851a7.072,7.072,0,0,1,.371,1.98C443.817,465.912,440.8,467.687,437.456,467.845Z" transform="translate(-430.987 -449.308)" fill="#3c9b36"/>
    <path id="Path_3822" data-name="Path 3822" d="M486.84,419.509a6.793,6.793,0,0,0,.489,2.135c.3.263.543-2.257.437-2.327S487.128,419.859,486.84,419.509Z" transform="translate(-481.753 -418.672)" fill="#3c9b36"/>
    <g id="Group_5248" data-name="Group 5248" transform="translate(3.857 3.339)">
      <path id="Path_3823" data-name="Path 3823" d="M478.885,448.5l-.411.244-.341.2c-.159-2.179-1.173-2.809-1.173-2.809a6.487,6.487,0,0,0,.41,2.625l-.386.094-.376.09a4.349,4.349,0,0,1-.226-2.809h-2.567a.491.491,0,0,1-.455-.383.624.624,0,0,1-.023-.168.519.519,0,0,1,.478-.551h3.75a.518.518,0,0,1,.478.551.586.586,0,0,1-.159.408A5.965,5.965,0,0,1,478.885,448.5Z" transform="translate(-473.337 -445.031)" fill="#d2dff8"/>
      <path id="Path_3824" data-name="Path 3824" d="M477.212,454.923l-.376.09a4.348,4.348,0,0,1-.226-2.809h-2.567a.491.491,0,0,1-.455-.383s1.976.049,2.783,0,.341.147.283,1.039A4.954,4.954,0,0,0,477.212,454.923Z" transform="translate(-473.564 -451.102)" fill="#f6f6f6"/>
      <path id="Path_3825" data-name="Path 3825" d="M514.641,454.387l-.341.2c-.159-2.179-1.173-2.809-1.173-2.809l.108-.44s.7.207,1.109,1.682A8.418,8.418,0,0,1,514.641,454.387Z" transform="translate(-509.503 -450.678)" fill="#f6f6f6"/>
    </g>
  </g>
  <g id="Group_5251" data-name="Group 5251" transform="translate(1.771 8.54)">
    <g id="Group_5250" data-name="Group 5250" transform="translate(0)">
      <path id="Path_3826" data-name="Path 3826" d="M449.962,494.639a3.9,3.9,0,0,1,.782-.076c.409,0,.618.093.681.3a.941.941,0,0,1-.174.7,2.121,2.121,0,0,1-1.13.938l-.01.016c.18.1.168.36.017.742a6.8,6.8,0,0,0-.347,1.009h-.426a5.641,5.641,0,0,1,.31-.878c.21-.507.158-.7-.194-.715H449.1l-.979,1.593H447.7Zm-.646,1.675h.406a1.354,1.354,0,0,0,1.106-.7c.281-.475.125-.682-.28-.687a1.617,1.617,0,0,0-.408.044Z" transform="translate(-447.705 -494.563)" fill="#fff"/>
      <path id="Path_3827" data-name="Path 3827" d="M478.34,496.884c.245-.513.541-1.129.785-1.587h-.013c-.329.431-.7.889-1.12,1.4l-1.511,1.784h-.312l.462-1.751c.144-.518.29-.993.451-1.429h-.009c-.268.458-.639,1.075-.978,1.625l-.978,1.577h-.393l2.323-3.677h.489l-.474,1.778c-.12.453-.235.856-.364,1.238h.014c.281-.371.61-.775,1-1.238l1.485-1.778h.489l-1.7,3.677h-.4Z" transform="translate(-472.262 -494.795)" fill="#fff"/>
    </g>
  </g>
</svg>
