<svg xmlns="http://www.w3.org/2000/svg" width="49.527" height="49.527" viewBox="0 0 49.527 49.527">
  <g id="Icons" transform="translate(3 3)" opacity="0.724">
    <g id="Outlined" transform="translate(-3 -3)">
      <g id="Content" transform="translate(0)">
        <g id="Outlined-_-Content-_-archive" data-name="Outlined-/-Content-/-archive">
          <g id="Group_9797" data-name="Group 9797">
            <path id="Path" d="M0,0H49.527V49.527H0Z" fill="none" fill-rule="evenodd"/>
            <path id="_-Icon-Color" data-name="🔹-Icon-Color" d="M39.2,7.6,36.328,4.135A3,3,0,0,0,33.955,3H9.191A3.067,3.067,0,0,0,6.8,4.135L3.949,7.6A4.041,4.041,0,0,0,3,10.223v25.8a4.139,4.139,0,0,0,4.127,4.127H36.018a4.139,4.139,0,0,0,4.127-4.127v-25.8A4.041,4.041,0,0,0,39.2,7.6ZM9.686,7.127H33.459l1.672,2H8.035ZM7.127,36.018v-22.7H36.018v22.7ZM24.565,17.445H18.58v6.191H13.318l8.255,8.255,8.255-8.255H24.565Z" transform="translate(3.191 3.191)" fill="#7c7c7c" fill-rule="evenodd"/>
          </g>
        </g>
      </g>
    </g>
  </g>
</svg>
