<svg xmlns="http://www.w3.org/2000/svg" xmlns:xlink="http://www.w3.org/1999/xlink" width="19" height="19" viewBox="0 0 19 19">
  <defs>
    <clipPath id="clip-path">
      <path id="_Color" data-name="↳ 🎨Color" d="M9,18a9,9,0,1,1,9-9A9.01,9.01,0,0,1,9,18ZM6,8a1,1,0,0,0-.707,1.708l2,2a1,1,0,0,0,1.415,0l4-4a1,1,0,1,0-1.414-1.414L8,9.586,6.707,8.293A.993.993,0,0,0,6,8Z" fill="#3c9b36"/>
    </clipPath>
  </defs>
  <g id="_Icon_-_R" data-name="💚 Icon - R" transform="translate(0.5 0.5)">
    <path id="_Color-2" data-name="↳ 🎨Color" d="M9,0A9,9,0,1,1,0,9,9,9,0,0,1,9,0Z" fill="#fff" stroke="#bebebe" stroke-width="1"/>
  </g>
</svg>
