<svg xmlns="http://www.w3.org/2000/svg" width="34.538" height="33" viewBox="0 0 34.538 33">
  <g id="message_icon" data-name="message icon" transform="translate(1.061 1)">
    <path id="Union_3" data-name="Union 3" d="M.918,29.833c2.145-.88,3.192-3.019,3.7-4.69a15.178,15.178,0,0,1-3.523-9.736A15.554,15.554,0,0,1,16.784,0,15.556,15.556,0,0,1,32.477,15.407,15.557,15.557,0,0,1,16.784,30.822a15.846,15.846,0,0,1-7.358-1.8A16.364,16.364,0,0,1,1.875,31C.047,31-.763,30.521.918,29.833Z" fill="none" stroke="#707070" stroke-linejoin="round" stroke-width="2"/>
    <g id="Ellipse_9" data-name="Ellipse 9" transform="translate(7.389 13.905)" fill="#fff" stroke="#707070" stroke-width="1">
      <circle cx="1.5" cy="1.5" r="1.5" stroke="none"/>
      <circle cx="1.5" cy="1.5" r="1" fill="none"/>
    </g>
    <g id="Ellipse_12" data-name="Ellipse 12" transform="translate(15.257 13.905)" fill="#fff" stroke="#707070" stroke-width="1">
      <circle cx="1.5" cy="1.5" r="1.5" stroke="none"/>
      <circle cx="1.5" cy="1.5" r="1" fill="none"/>
    </g>
    <g id="Ellipse_11" data-name="Ellipse 11" transform="translate(23.125 13.905)" fill="#fff" stroke="#707070" stroke-width="1">
      <circle cx="1.5" cy="1.5" r="1.5" stroke="none"/>
      <circle cx="1.5" cy="1.5" r="1" fill="none"/>
    </g>
  </g>
</svg>
