<svg xmlns="http://www.w3.org/2000/svg" width="33" height="33" viewBox="0 0 33 33">
  <g id="Notification_icon" data-name="Notification icon" transform="translate(1 1)">
    <path id="Notification_icon-2" data-name="Notification icon" d="M11.108,25.858H19.5C19.5,28.7,17.622,31,15.3,31S11.108,28.7,11.108,25.858Zm0,0Zm4.282-.18H0S7.566,20.725,7.684,7.732l-.006-.051A7.918,7.918,0,0,1,15.39.011V0c.036,0,.074,0,.11.006S15.572,0,15.607,0V.011a7.93,7.93,0,0,1,7.714,7.67l-.008.051C23.434,20.725,31,25.678,31,25.678Z" transform="translate(0 0)" fill="none" stroke="#707070" stroke-linecap="round" stroke-linejoin="round" stroke-width="2"/>
  </g>
</svg>
