<svg id="send-message" xmlns="http://www.w3.org/2000/svg" xmlns:xlink="http://www.w3.org/1999/xlink" width="75.392" height="75.393" viewBox="0 0 75.392 75.393">
  <defs>
    <linearGradient id="linear-gradient" x1="0.5" x2="0.5" y2="1" gradientUnits="objectBoundingBox">
      <stop offset="0" stop-color="#72ae2b"/>
      <stop offset="1" stop-color="#419d34"/>
    </linearGradient>
  </defs>
  <path id="send-message-2" data-name="send-message" d="M38.543,53.648a2.126,2.126,0,0,1,3.006,0l5.569,5.569a2.125,2.125,0,1,1-3.006,3.005l-5.569-5.569a2.124,2.124,0,0,1,0-3.005ZM53.649,38.541a2.124,2.124,0,0,1,3.005,0l5.569,5.569a2.125,2.125,0,0,1-3.005,3.006l-5.569-5.569A2.126,2.126,0,0,1,53.649,38.541ZM43.578,43.577a2.127,2.127,0,0,1,3.006,0L60.7,57.691A2.126,2.126,0,1,1,57.692,60.7L43.578,46.583A2.126,2.126,0,0,1,43.578,43.577ZM.108,2.789,20.251,64.431a2.127,2.127,0,0,0,3.858.408l13.546-23.3a2.125,2.125,0,0,0-.13-2.336L32.661,32.66l6.548,4.864a2.125,2.125,0,0,0,2.336.13l23.3-13.546a2.127,2.127,0,0,0-.408-3.858L2.789.108A2.128,2.128,0,0,0,.108,2.789Z" transform="translate(75.392 10.308) rotate(99)" fill="url(#linear-gradient)"/>
</svg>
