<svg xmlns="http://www.w3.org/2000/svg" width="19" height="19" viewBox="0 0 19 19">
  <g id="Solid" transform="translate(-24 -23.999)">
    <path id="Path_5744" data-name="Path 5744" d="M143.168,29.383l2.029-2.029V38.085a.983.983,0,1,0,1.965,0V27.354l2.029,2.029a.983.983,0,1,0,1.39-1.39l-3.706-3.706a.983.983,0,0,0-1.39,0l-3.706,3.706a.983.983,0,1,0,1.39,1.39Z" transform="translate(-112.68)" fill="#6c6c6c"/>
    <path id="Path_5745" data-name="Path 5745" d="M42.017,232a.983.983,0,0,0-.983.983v7.534H25.966v-7.534a.983.983,0,1,0-1.966,0v7.862a1.638,1.638,0,0,0,1.638,1.638H41.362A1.638,1.638,0,0,0,43,240.845v-7.862A.983.983,0,0,0,42.017,232Z" transform="translate(0 -199.484)" fill="#6c6c6c"/>
  </g>
</svg>
