<svg xmlns="http://www.w3.org/2000/svg" width="27.5" height="26.853" viewBox="0 0 27.5 26.853">
  <path id="Subtraction_2" data-name="Subtraction 2" d="M23.794,25.853a1.248,1.248,0,0,1-.878-.356l-5.161-5.034a1.188,1.188,0,0,1-.363-.858v-.823A10.827,10.827,0,0,1,10.767,21,10.649,10.649,0,0,1,0,10.5,10.649,10.649,0,0,1,10.767,0,10.648,10.648,0,0,1,21.533,10.5a10.232,10.232,0,0,1-2.278,6.463H20.1a1.267,1.267,0,0,1,.88.353l5.162,5.034a1.2,1.2,0,0,1-.006,1.716L24.67,25.5A1.242,1.242,0,0,1,23.794,25.853ZM10.807,4.016a6.557,6.557,0,0,0-6.689,6.4,6.557,6.557,0,0,0,6.689,6.4,6.556,6.556,0,0,0,6.687-6.4A6.556,6.556,0,0,0,10.807,4.016Z" transform="translate(0.5 0.5)" fill="#dbd8d8" stroke="rgba(0,0,0,0)" stroke-miterlimit="10" stroke-width="1"/>
</svg>
