<svg xmlns="http://www.w3.org/2000/svg" width="45.6" height="38" viewBox="0 0 45.6 38">
  <g id="transfer" transform="translate(0 -2)">
    <path id="Path_5738" data-name="Path 5738" d="M10.45,22.9a.957.957,0,0,1-.673-.277l-9.5-9.5a.951.951,0,0,1,0-1.343l9.5-9.5A.95.95,0,0,1,11.4,2.95V7.7h19a1.9,1.9,0,0,1,1.9,1.9v5.7a1.9,1.9,0,0,1-1.9,1.9h-19v4.75a.95.95,0,0,1-.587.878A.937.937,0,0,1,10.45,22.9ZM2.293,12.45,9.5,19.657V16.25a.95.95,0,0,1,.95-.95H30.4V9.6H10.45a.95.95,0,0,1-.95-.95V5.244Z" transform="translate(0 0)" fill="#5aa630"/>
    <path id="Path_5739" data-name="Path 5739" d="M28.85,31.9a.937.937,0,0,1-.363-.072.95.95,0,0,1-.587-.878V26.2H8.9A1.9,1.9,0,0,1,7,24.3V18.6a1.9,1.9,0,0,1,1.9-1.9h19V11.95a.951.951,0,0,1,1.623-.673l9.5,9.5a.951.951,0,0,1,0,1.343l-9.5,9.5A.951.951,0,0,1,28.85,31.9ZM8.9,18.6v5.7H28.85a.95.95,0,0,1,.95.95v3.407l7.207-7.207L29.8,14.243V17.65a.95.95,0,0,1-.95.95Z" transform="translate(6.3 8.1)" fill="#5aa630"/>
  </g>
</svg>
