<svg xmlns="http://www.w3.org/2000/svg" width="33.984" height="33.983" viewBox="0 0 33.984 33.983" >
  <g id="XMLID_1441_" transform="translate(0 -0.01)" >
    <g id="XMLID_561_" transform="translate(0 0.011)" >
      <path id="XMLID_592_" d="M31.993,18.329h-.664V13.682a3.856,3.856,0,0,0-3-3.755L25.305,4.695a3.316,3.316,0,0,0-3.824-1.518l-2.2-2.2A3.319,3.319,0,0,0,14.6.98L5.744,9.833H3.85A3.854,3.854,0,0,0,0,13.682V30.143a3.854,3.854,0,0,0,3.85,3.85h8.828a.664.664,0,1,0,0-1.328H3.85a2.525,2.525,0,0,1-2.522-2.522V13.682A2.525,2.525,0,0,1,3.85,11.16h23.63A2.525,2.525,0,0,1,30,13.682v4.646H25.09a3.584,3.584,0,1,0,0,7.169H30v4.646a2.525,2.525,0,0,1-2.522,2.522H18.652a.664.664,0,1,0,0,1.328h8.828a3.854,3.854,0,0,0,3.85-3.85V25.5h.664a1.994,1.994,0,0,0,1.991-1.991V20.32A1.994,1.994,0,0,0,31.993,18.329Zm-9.044-13.9a1.975,1.975,0,0,1,1.207.926l2.583,4.474H12.432l9.009-5.2a1.975,1.975,0,0,1,1.508-.2ZM15.535,1.919a1.988,1.988,0,0,1,2.811,0l1.88,1.88L9.777,9.833H7.622ZM32.657,23.506a.665.665,0,0,1-.664.664h-6.9a2.257,2.257,0,1,1,0-4.514h6.9a.665.665,0,0,1,.664.664Z" transform="translate(0 -0.011)" fill="#73B12D"/>
      <path id="XMLID_1063_" d="M366.994,319.988a.664.664,0,1,0,.469.195A.668.668,0,0,0,366.994,319.988Z" transform="translate(-342.015 -298.749)" fill="#a3a3a3"/>
      <path id="XMLID_1068_" d="M226.664,491.988a.664.664,0,1,0,.469.194A.669.669,0,0,0,226.664,491.988Z" transform="translate(-210.999 -459.333)" fill="#a3a3a3"/>
    </g>
  </g>
</svg>
